<svg xmlns="http://www.w3.org/2000/svg" viewBox="0 0 120 120">
  <rect width="120" height="120" rx="24" fill="#01327F"/>
  <path transform="translate(6 29) scale(.58)" fill="#FEFEFE" fill-rule="evenodd" d="M144.559 1.905C144.251 2.402 144.843 6.34 145.874 10.655C146.904 14.97 147.692 18.572 147.624 18.659C147.556 18.747 145.051 18.333 142.058 17.739C134.937 16.326 124.925 17.999 117.216 21.891C110.063 25.503 101.734 34.197 98.196 41.747C95.78 46.902 95.5 48.643 95.5 58.5C95.5 68.735 95.716 69.957 98.609 76.062C106.52 92.756 124.683 102.345 142.587 99.278C156.192 96.947 167.015 88.814 173.173 76.294C176.426 69.679 176.498 69.248 176.415 57.014C176.335 45.307 175.99 43.178 171.051 24C168.148 12.725 165.319 2.938 164.764 2.25C163.576.778 145.447.468 144.559 1.905M39 18.035C31.611 19.581 22.656 24.591 17.58 30.018C14.989 32.787 11.437 38.079 9.685 41.777C6.766 47.939 6.5 49.334 6.5 58.5C6.5 67.666 6.766 69.061 9.685 75.223C14.111 84.567 20.641 91.219 29.858 95.774C37.012 99.31 37.883 99.497 46.948 99.443C57.563 99.38 63.237 97.685 71.222 92.191L75.756 89.072 76.422 93.236C76.788 95.527 77.573 97.986 78.166 98.7C79.431 100.224 97.532 100.567 98.448 99.084C99.272 97.752 88.211 51.553 85.406 44.611C80.042 31.335 73.194 23.713 63.305 20.013C56.911 17.62 45.44 16.687 39 18.035M43.5 38.989C38.314 40.159 34.063 42.93 31.029 47.118C23.035 58.153 28.469 73.755 41.64 77.584C50.587 80.185 59.136 77.009 64.052 69.258C69.921 60.003 67.088 47.339 57.922 41.853C53.05 38.936 48.094 37.952 43.5 38.989M127.5 40.364C117.943 44.8 113.278 57.743 117.941 66.885C121.362 73.589 129.417 78.989 136 78.989C142.769 78.989 151.056 73.285 154.135 66.509C157.878 58.27 155.28 48.623 147.694 42.587C144.45 40.006 142.898 39.516 137.194 39.265C132.99 39.081 129.384 39.49 127.5 40.364"/>
</svg>
